<svg version="1.1" id="Layer_1" xmlns="http://www.w3.org/2000/svg" x="0" y="0" viewBox="0 0 626.6 831" style="enable-background:new 0 0 626.6 831" xml:space="preserve"><style>.st0{fill:#2e2e47}.st1{fill:#946255}.st2{fill:#6a10c4}.st4{fill:#ffe2bd}.st5{fill:#fff}.st6{fill:#8b48d8}.st8{fill:#9c6f43}.st9{fill:#3ecc6d}.st10{fill:#c96b59}.st11{fill:#c3eae7}</style><path class="st0" d="M212.9 288.1c-.1 0-.3 0-.3-.1-.2-.2-22.4-20.8-38.4-21.8-.3 0-.5-.3-.5-.5 0-.3.3-.5.5-.5 6.9.4 15.6 4.3 25.8 11.5 7.6 5.3 13.2 10.6 13.3 10.6.2.2.2.5 0 .7-.1 0-.3.1-.4.1zM209.3 291.9c-.1 0-.2 0-.3-.1-.1-.1-8.8-6.3-18.5-11.7-12.6-7.1-21.1-9.8-24.5-7.6-1.2.7-1.1 1.4-1 1.6.7 4.5 22.1 11.4 30.4 13.7.3.1.4.4.4.6-.1.3-.4.4-.6.4-3.1-.9-30.2-8.6-31.1-14.5-.1-1 .4-1.9 1.5-2.6 8.9-5.7 42.6 18.4 44.1 19.4.2.2.3.5.1.7-.1 0-.3.1-.5.1zM207.7 278.4c-.1 0-.3-.1-.4-.2-.1-.2-12.8-15.3-23.8-16.3-.3 0-.5-.3-.5-.6s.3-.5.6-.5c4.8.5 10.4 3.4 16.6 8.8 4.6 4 7.9 7.9 7.9 7.9.2.2.2.5-.1.7 0 .2-.1.2-.3.2z"/><path class="st1" d="M343.5 154.8s4.8-28.5 35.9-28c31.1.5 56.2 7.4 61.7 17s39.5 131.7 14.1 158.8c-25.4 27.2-96.6 20.3-109.7-5.2-13-25.3-2-142.6-2-142.6z"/><path class="st2" d="M326.3 126.5s-7.5-10.8-16.2-12.5c-8.8-1.6-32.6-4.8-44.4 11.5-12 16.3 61.1 7.7 60.6 1z"/><ellipse cx="348.7" cy="794.5" rx="221" ry="20.1" style="opacity:.1;fill:#2e2e47"/><path class="st4" d="M258.5 764c1.7 3.5-6.7 8.1-2.3 9.5 4.4 1.4 10.3.4 14.1-2.9 3.8-3.4 8.6-8.9 14.2-5.9-.9-3.3 3.3-23.6 3.8-25.7.6-2.6-36-1.6-36.7 0v22.1s5.2-.5 6.9 2.9z"/><path class="st0" d="M215 792.4c7.3 5.5 14-3.3 19.2-2 5.3 1.3 8.4-3.2 13.6-.3 5.2 2.9 2 4.3 6.6 3.3 4.5-1 23.6-20.5 35-12.1-.9-2.5-3.4-13.9-4.4-15.3-.2-.2-.3-.7-.5-1.3-5.6-3-10.4 2.5-14.2 5.9-3.8 3.4-9.7 4.3-14.1 2.9s4-6 2.3-9.5c-1.7-3.5-6.9-3-6.9-3s-2.8-.3-6.1 3.6c-3.2 3.8-9.2 5.6-11.3 5.7-2.1.1-23.4 9.8-23.4 9.8s-3.1 6.8 4.2 12.3z"/><path class="st5" d="M289.4 781.2c-11.4-8.3-30.4 11.1-35 12.1-4.5 1-1.3-.3-6.6-3.3-5.2-2.9-8.4 1.6-13.6.3-5.3-1.3-12 7.5-19.2 2-7.3-5.5-4.1-12.2-4.1-12.2s-2.3-4.5-9.1-2.3-12.1 6.9-8.6 14.5 20.3 11.5 29.1 12.6c8.8 1.1 11.3-2.3 11.3-2.3s1.1-5.4 4.4-2.5c3.3 2.9 2.2 4.2 2.2 4.2l16.7.4s2.2-8.5 5.7-6.5-1.2 6.8 3.8 8.7c5 1.9 29.1-3.9 30.1-9.8 1.1-5.9-6.2-13.4-7.1-15.9z"/><path class="st4" d="M421.4 745.8c-.5-2.8 20.5-3.1 21.4.5 0 0 1.6 6.9 3 10.2.3.8.9 1.8 1.7 2.9-.7 3.4-1.7 7.9-2.3 7.2-.9-1.1 3.6-5.2-1.9-7.1-5.5-1.9-15.1-1.1-16.6 1.4-1.5 2.6.2 6.8-1.3 6.8-.9 0-4.9-3.3-7.7-5.7.2-.6.4-.9.4-.9s3.7-12.5 3.3-15.3z"/><path class="st5" d="M431.8 801.6c6.5-.2 8.4-7.1 15.4-7.5 7-.4 8.5 6.1 11.6 1.2 3.2-4.9 1.5-9.2 1.5-9.2s5.3-1 5.9 3c.6 4 1.5 13.7-5.5 18.6-7 4.9-16.9 8.5-25.4 6.4-8.5-2.2-19.6-6.4-22.2-11.3-2.6-4.9 1.3-15.9 1.3-15.9 6.3 10.2 10.9 14.9 17.4 14.7z"/><path class="st0" d="M417.8 762c2.8 2.4 6.7 5.7 7.7 5.7 1.5 0-.2-4.2 1.3-6.8 1.5-2.6 11.2-3.4 16.6-1.4 5.5 1.9 1 6.1 1.9 7.1.5.7 1.6-3.8 2.3-7.2 2.3 3.4 5.9 8.1 7.7 12.3 2.4 5.5 5.2 14.4 5.2 14.4s1.6 4.4-1.5 9.2c-3.2 4.9-4.6-1.6-11.6-1.2-7 .4-8.9 7.3-15.4 7.5-6.5.2-11.1-4.5-17.3-14.7 0 0 1.2-11.8 1-15.4-.3-2.8 1.3-7.5 2.1-9.5z"/><path class="st2" d="M241.1 137.8s-96 65.6-116.1 109.5c-21.2 46.3-12 85.2 6.9 110.1s23.2 2.6 33.9-1.3c10.7-3.9 14.7-78.8 14.7-78.8s53.3-91.3 60.6-139.5z"/><path class="st6" d="m181.6 185.7 11.6 1.7c2 .3 3.8-1.1 4.1-3 .3-2-1.1-3.8-3-4.1l-7.3-1.1c-2.3 1.9-4.6 3.9-6.9 5.9.4.3.9.5 1.5.6zM156.1 230.6c1.5 1.3 3.8 1.2 5.1-.3l7.8-8.7c1.3-1.5 1.2-3.8-.3-5.1-1.5-1.3-3.8-1.2-5.1.3l-7.8 8.7c-1.4 1.5-1.2 3.8.3 5.1zM166.5 271.5l-11.7.6c-2 .1-3.5 1.8-3.4 3.8.1 2 1.8 3.5 3.8 3.4l11.7-.6c2-.1 3.5-1.8 3.4-3.8-.1-1.9-1.8-3.5-3.8-3.4zM119.3 305.3c.6-1.9-.6-3.9-2.5-4.5l-3.9-1.1c0 2.6.1 5.1.3 7.6l1.7.5c1.9.5 3.9-.6 4.4-2.5z"/><path d="m175.3 380 220.6 2.4 31.7 182.2s7 20.5 8.5 27.5c3.2 15.2 7 61.6 7 61.6l16.8 96.2s-19.4 5.1-24.8 5.9c-25.5 3.7-41.3 1.3-41.3 1.3s-3.4-9.6-7.2-19.5c-.6-1.5 4.5-3.1 3.8-4.7-13-33.3-38.1-97.5-48.2-121.6-3.1-7.4-52.4-131.4-52.4-131.4l8.9 248.1 5.7 3.8.3 19.3s-14.7 6.1-36.1 6.1c-27.6 0-37.5-4.1-37.5-4.1s-.1-5.4-2.4-17.5c-.3-1.5 2.8-5.5 2.5-7.2-15-77-60.2-315.7-55.9-348.4z" style="fill:#82a7af"/><path class="st0" d="M348.4 156.1c-25.1-38-69.4-38.3-96.1-25.8-28.1 13.2-43.3 62.6-43.3 62.6s-28.4 51.6-35.1 106.6c-6.6 54.9 1.4 80.6 1.4 80.6s39.6 8.7 108.3 8.7c28.1 0 112.3-6.3 112.3-6.3s-9.7-45.1-17.3-98.7c-6.4-44.8-9.4-96.2-30.2-127.7z"/><path class="st5" d="M389.8 351.8c-6.1.1-11.2 0-14.1-.4-6.6-.9-16.5.1-28 1.2-11.7 1.1-24.9 2.4-38.5 2.2-20.1-.2-32.8-1.3-53.8-3.2-7.4-.7-15.8-1.4-26-2.2-22.4-1.8-43.9-1.5-58.1-1 0 1.4.1 2.8.2 4.1 14-.6 35.4-.8 57.6 1 10.1.8 18.5 1.6 25.9 2.2 21.1 1.9 33.8 3 54.1 3.2h2.3c13 0 25.5-1.2 36.6-2.2 11.3-1.1 21-2 27.1-1.2 3.1.4 8.7.5 15.4.4-.2-1.4-.5-2.8-.7-4.1zM217.4 171.9c-.7 1.4-1.3 2.8-1.9 4.1 8.8 0 16.4 1.4 23.7 2.8 6.2 1.2 12.1 2.3 18.3 2.5 5.6.1 13.1.4 21.1.7 12.6.5 26.8 1 37.1 1h3.7c9.3 0 24.8-.1 38.2.6 1.2.1 2.4.1 3.5.2-.5-1.4-.9-2.8-1.4-4.2-10-.5-23.2-.7-40.3-.7h-3.7c-10.2 0-24.4-.5-37-1-8-.3-15.6-.6-21.2-.7-5.8-.1-11.6-1.2-17.6-2.4-6.6-1.3-14-2.8-22.5-2.9zM221.6 289.6c11.2 0 24.7 1.9 38.9 3.9 5.7.8 11.6 1.7 17.7 2.4 14.7 1.9 25.4 1.4 38.8.8 6.4-.3 13.6-.6 22.1-.7 9.9-.1 25.6.2 41.3.6-.2-1.4-.4-2.7-.6-4.1-15.4-.4-30.9-.7-40.7-.5-8.6.1-15.8.4-22.2.7-13.3.6-23.8 1.1-38.1-.7-6-.8-11.9-1.6-17.6-2.4-14.4-2.1-28-4-39.5-4-15.9.1-24.5-.2-41.4-1.6-1.1-.1-2.4-.2-3.8-.3-.3 1.3-.5 2.7-.7 4 1.4.1 2.8.3 4.2.4 16.9 1.4 25.6 1.6 41.6 1.5zM217 236.1c17.9 1.7 36.5 3.4 47.2 3.8 11.6.5 20 1.2 27.5 1.8 8.7.7 16.2 1.3 25.8 1.3 8.1 0 14 1.1 20.3 2.3 6.9 1.3 14.8 2.8 27 3 3 0 6.2.1 9.3.1-.2-1.4-.4-2.7-.5-4.1-2.9 0-5.8-.1-8.7-.1-11.9-.2-19.2-1.6-26.3-2.9-6.4-1.2-12.5-2.4-21-2.4-9.4 0-16.8-.6-25.4-1.3-7.5-.6-16-1.3-27.6-1.8-10.6-.4-29.1-2.2-47-3.8-8.8-.8-17.3-1.6-25.1-2.3-.5 1.3-1 2.6-1.5 4 8 .7 17.1 1.6 26 2.4z"/><path class="st8" d="M228.1 388.8v13.1l-49.7-3.1s-2.4-10-.7-14.8c0 0 21.2 5.2 50.4 4.8z"/><path class="st2" d="M273.9 125.6s-6.6 8.7-13.2 22.9c-6.7 14.2-53.7 184.9-55.2 217.6s1.9 40.5-3.8 39.7c-5.7-.8-40.8-3.5-43.4-17.1-2.6-13.6 10.4-98.2 12.2-114 1.8-15.8 27.1-73.6 30.9-83.1 3.9-9.5 24-44.4 38.2-55.7 14.2-11.3 34.5-15.5 36.7-14.7 2.3.8-2.4 4.4-2.4 4.4z"/><path class="st8" d="m393.1 384 2.7 11s-47.6 7.2-89.8 6.9l-2-11.7s58.4-1.4 89.1-6.2z"/><path class="st4" d="M270.6 136.3c-4.4-1.3.8-7.5 3.5-12.9 3-6.2 4.1-11.7 6.1-14.1 3.9-4.4 23.2-10.7 23.2-10.7s1.7 17.2 7.9 31.1c-5 8.9-28.5 10.2-40.7 6.6zM265.8 67.5s-3.4-2-5.5-.3-2.4 12 .6 12.5c3 .6 8-9.2 4.9-12.2zM309 74.1c.9.8 2.5 1 4.6 2 3.7 1.7 2.4 7.3.5 10.6-1.9 3.4-7.7 4-7.7 4s-.2-5.4 0-6.8c.6-8.6 2.2-7.6 2.6-9.8z"/><path class="st4" d="M303.2 79.3c-1.2 4.8-2.3 12.6-5.6 15.6s-3.7 4.1-5.3 2.2c-1.6-1.9-33.6-6.8-35.4-10 1.2-5.1 2.8-10 3.7-13 1.6-5.6 1-16 7.8-24.1 6.9-8 28.9-7 36.1.9 7.2 7.9 3.8 19.6 3.8 19.6-.2 1.1-.2 1.8 0 2.4-1.6 1.1-4.3 3.1-5.1 6.4z"/><path class="st9" d="M258.1 84.8c3.6-.5 5.7 3.4 9.2 3.4 6.2 0 14.6 0 19.2 2.1 4.6 2.2 4.3 5 5.9 6.9 1.6 1.9 2 .8 5.3-2.2s4.4-10.9 5.6-15.6c.8-3.3 3.5-5.3 5.2-6.3.1.5.3.8.6 1.1-.6 2.9-1.6 9.3-1.7 10.9-.2 2.4 0 3.7.4 4.4.7 1.3.9 2.8.4 4.2-1.2 3.3-2.2 18.2-6.9 22.6-6.8 6.3-16.6 8.9-29.4 6.8-12.8-2.2-18.3-14.1-18.7-22.5-.3-4.1.3-15.2 4.9-15.8z"/><path class="st4" d="M277.8 93.1c1.1.3 2.3.5 3.5.5 2.3.1 6 .4 5.8 2.1-.2 2.4-5 8.8-7.2 7.9-2.2-.9-1.9-3.4-3.1-4.1-1.1-.6-4.9-1.4-6.4.3-1.6 1.7-3 3.1-3.9 1.4-.8-1.7-1.7-8.8 0-9.7 1.4-.8 8 .6 11.3 1.6z"/><path class="st9" d="M268.6 47.8c8.8-5.9 28.7-4.6 36 3.3 7.2 7.9 8.4 19 8.4 19-.2 1.1.5 5.4.6 6-1.7-.8-8.1-1.2-9.2.6-.7-2.6-1.3-7.4-1.7-10.1-.6-3.8-4.6-11.7-12-10.2 0 0-15.4.4-19.9-4.2-.8-.8-4 3.6-5.9 3.6.9-1.9.8-6.1 3.7-8z"/><path class="st5" d="M268.2 92.6c7.4 3.2 13.5 1.9 13.5 1.9s.9 4.8-6.6 4.2c-7.5-.8-6.9-6.1-6.9-6.1z"/><path class="st4" d="M273.5 82.7s-4.9 3.6-4 6.5c1 2.9 6.2 3.4 9.3 1.9 3.2-1.5.9-11.2-5.3-8.4z"/><path class="st0" d="M270.1 85.2c-.2 0-.4-.1-.5-.3-.1-.3 0-.6.3-.7.2-.1 4.6-2 4.3-8-.3-5.9-1.6-9.1-4.1-9.4-3.8-.5-6.6 1.2-6.6 1.2-.2.2-.6.1-.7-.2-.2-.2-.1-.6.2-.7.1-.1 3.1-2 7.3-1.4 3 .4 4.7 3.8 5 10.4.3 6.7-4.9 8.9-5 9 0 .1-.1.1-.2.1zM294.6 73.8h-.2c-.1 0-6-2.7-9.9-2.4-.3 0-.5-.2-.5-.5s.2-.5.5-.5c4.2-.3 10.2 2.3 10.4 2.4.3.1.4.4.3.7-.2.1-.4.3-.6.3zM268.6 47.8s10.5-1.1 27.1 6.2c16.6 7.3 17.3 16.1 17.3 16.1s4.9-3.7 5-9.2c.1-5.5-2.7-10.1-2.7-10.1s4.3-10.9-4.5-15.6c-6.9-3.7-22.1.2-28.3 2-1.5.4-3 .7-4.5.9-2.8.3-7.9 1.9-9.4 9.7zM292.7 78.7c-.2 0-.4-.1-.4-.3 0 0-1.2-1.8-6.3-2.2h-1.6c-.3 0-.5-.2-.5-.5s.2-.5.5-.5h1.6c5.7.5 7 2.5 7.1 2.7.1.2 0 .6-.2.7-.1.1-.1.1-.2.1z"/><path class="st0" d="M291.8 77.4s.7 3.5-2.3 3.6c-3 .1-3.1-2.9-2.9-3.9s3.2-1.6 5.2.3zM271.2 74.1c-.1 0-.3-.1-.4-.2 0 0-1.3-1.4-5.2-.6l-1.2.4c-.3.1-.6-.1-.6-.3-.1-.3.1-.6.3-.6l1.3-.4c4.7-1 6.2.8 6.3.9.2.2.1.5-.1.7-.2.1-.3.1-.4.1z"/><path class="st0" d="M270.3 73.5s1 3.3-1.4 3.9c-2.4.5-2.8-2.4-2.8-3.5.1-1.1 2.4-2 4.2-.4z"/><path class="st9" d="M260.7 74s-1.8 8.4-.9 12.4-5.3 5.1-5.3 3.9c-.1-1.3 1.4-14.1 6.2-16.3z"/><path class="st8" d="m297.1 390.6 1.6 12.6s-36.9 1.8-64.7-1.4l-.7-13.1c-.1.1 25.6 4.2 63.8 1.9z"/><path class="st2" d="M308 120.7s2.1 26.6 1.1 46.8c-1 20.3-17.3 197-5 236.2 0 0 61.4 4.8 81.7 0 11.9-2.8 23.2-6.1 30.5-8.2 4.7-1.4 7.5-6.2 6.3-11-6.7-28-28.1-116.8-30.7-128.7-3.1-14.1-26.7-104.8-39.8-118s-24.7-16.1-44.1-17.1z"/><path class="st4" d="M353.2 349.6s-11-14-21.6-19.7c-3.1-1.6-24.7-.3-25.3 1.9-.6 2.2 7.4 4.2 7.4 4.2s-11 1-11.3 2.2c-.3 1.2 2.8 3 2.8 3s-3.4 1-3 2.6c.4 1.6 18.7 5.8 19.4 6.6.7.8-4.4-.1-5.8 0-1.3 0-5.3-1.1-5.9 1.1-.6 2.2 14.8 4.9 17.8 6.5 3.1 1.5 3.5 7.9 12.8 11.9 6.2 2.7 17.8.5 20.9-7.5 3.2-8.2-8.2-12.8-8.2-12.8z"/><path class="st6" d="M319.9 297.9c.8 1.8 2.9 2.7 4.8 1.9 1.8-.8 2.7-2.9 1.9-4.8l-4.7-10.7c-.8-1.8-2.9-2.7-4.8-1.9-1.8.8-2.7 2.9-1.9 4.8l4.7 10.7zM369.3 262.5l-10.2 5.7c-1.7 1-2.3 3.2-1.4 4.9 1 1.7 3.2 2.3 4.9 1.4l10.2-5.7c1.7-1 2.3-3.2 1.4-4.9-1-1.7-3.2-2.3-4.9-1.4zM330.2 222.2c-2-.2-3.7 1.3-3.9 3.3l-1 11.7c-.2 2 1.3 3.7 3.3 3.9 2 .2 3.7-1.3 3.9-3.3l1-11.7c.2-2-1.3-3.8-3.3-3.9zM315.7 198.1c1.9.6 3.9-.4 4.6-2.3.6-1.9-.4-3.9-2.3-4.6l-10.4-3.4c-.2 2.3-.4 4.8-.6 7.4l8.7 2.9z"/><path class="st10" d="M402.2 354.6c-.2-2-1.9-3.5-3.9-3.3-2 .2-3.5 1.9-3.3 3.9l.9 11.7c.2 2 1.9 3.5 3.9 3.3 2-.2 3.5-1.9 3.3-3.9l-.9-11.7z"/><path class="st6" d="M331 139.4c-1.9-.6-3.9.5-4.5 2.4L323 153c-.6 1.9.5 3.9 2.4 4.5 1.9.6 3.9-.5 4.5-2.4l3.5-11.2c.5-1.9-.5-3.9-2.4-4.5zM370.4 322.3c1.6-1.2 1.9-3.5.7-5.1l-7.1-9.3c-1.2-1.6-3.5-1.9-5.1-.7-1.6 1.2-1.9 3.5-.7 5.1l7.1 9.3c1.3 1.6 3.6 1.9 5.1.7z"/><path class="st1" d="M357.2 140.3s-8.2 33.5-1.3 62.6c7 29.1 42 51.3 42 51.3l3.9 29.7s-25.5-6.3-47.2-30.5c-21.7-24.2-22.4-71.1-20.4-88.4 2.1-17.3 6.8-36.2 6.8-36.2s10.5 1.5 16.2 11.5z"/><path class="st2" d="M485.7 267.3c-20.5-61.1-132.2-128.1-132.2-128.1s-8.4 40.2 4.7 62.2c19.7 33.1 47.1 59.3 47.1 59.3l-.3.3 21.3 2.2 59.4 4.1z"/><path class="st2" d="m426.3 263.3-21.3-2.2-60.3 75.4s2.1 21.7 10.4 38.1c10 19.8 113.5-23.7 131.6-76.8 3.3-9.6 2.6-19.9-1-30.5l-59.4-4z"/><path class="st0" d="M346.2 335.3c-.1 0-.2 0-.3-.1-.2-.2-.3-.5-.1-.7l15.9-19.8c.4-.6 2.6-3.2 5.5-6.8 9-10.9 27.6-33.7 28.2-34.9.7-1.4 6.6-8.9 7.3-9.7.2-.2.5-.3.7-.1.2.2.3.5.1.7-1.8 2.3-6.7 8.4-7.2 9.5-.4.9-11.7 14.7-28.4 35.1-2.9 3.6-5.1 6.2-5.5 6.8l-15.9 19.8c0 .1-.2.2-.3.2zM163.2 329.7c-.3 0-.5-.2-.5-.5.9-25.5 9.7-64.6 9.8-65v-.1c.6-1.7 15.6-41.8 16.2-43.4.9-2.2 15.9-36.9 16.9-38.8l.1-.1c4.1-7.4 17.7-31.8 23.3-35.6.2-.2.6-.1.7.1.2.2.1.6-.1.7-5.5 3.7-20.1 30-23 35.2l-.1.1c-1 1.9-16 36.4-16.9 38.7-.7 1.6-15.7 42-16.2 43.3-.3 1.3-8.8 39.7-9.8 64.7.1.5-.1.7-.4.7zM333.5 385c-8.2 4.6-8.4 16.7-8.3 20 19.8 1 48 1.7 60.6-1.3 11.9-2.8 23.2-6.1 30.5-8.2 4.7-1.4 7.5-6.2 6.3-11-.9-3.6-2-8.2-3.3-13.6-27 8.7-76.9 9-85.8 14.1zM180.5 380c-3.8-4.7-14.3-11.6-21.5-13.4-.9 10.5-1.3 18.6-.6 22.1 1.5 7.7 13.3 11.9 24.3 14.2.8-4.9 2.3-17.3-2.2-22.9zM282.2 75.6s-3.4-1.7-5.6-1.9c-2.2-.3-3.3-.1-3.3-.1l-.8 1.7s6 .2 7.4 1.4c1.5 1.3 2.3-1.1 2.3-1.1z"/><path class="st0" d="M297.9 74.9c-.8-.8-5.9-1.1-7.2-1.3-1.3-.3-7.3-1.3-9.1.5-1.9 1.8-1.2 5.4-1.3 7.8-.1 2.4.4 5.3 6.2 5.6 3.6.2 6.6.4 9.2-3.2 1.3-1.8 1.3-5.1 1.3-5.4 0-.3 1.4-1.5 1.4-1.5s.4-1.7-.5-2.5zm-2.5 4.5c-.5 7.9-5.7 7.5-8.9 7.3-3.2-.3-4.6-1.9-4.8-2.7-.2-.8-1.2-7.4 1-8.7 2.3-1.3 10.7.4 12.1 1 1.4.6.6 3.1.6 3.1zM264.5 69.2c-1.6-.1-4.5-.4-5.3-.4s-.5 1-.7 2.4c-.2 1.4 1.2 1.3 1.8 1.1.6-.3-1.1 6.2-1 7.5.1 1.3 2.5 4.1 7.7 4 5.2-.1 7.1-9 7.8-9.9.5-1.2-6.8-4.5-10.3-4.7zm7.5 7c-1.8 7.6-5.5 6.2-7.9 5.6-2.4-.5-3.2-2.2-3.3-3 0-.8.3-7.3 2.3-8.3s8.2 1.8 9.2 2.5-.3 3.2-.3 3.2z"/><path class="st0" d="M296.1 75.1s14.6-.5 15-.3c.4.3.3.8.1 1.2-.2.3-15.3 2.7-15.3 2.7l.2-3.6zM289.7 480.4c-.2 0-.4-.2-.5-.4-.1-.4-9.1-39.1-18.6-45.1-4-2.5-18.4-4.8-34.3-5.4-17.3-.7-29.9.8-33 3.7-.8.7-.8 1.5-.2 2.5 5.5 9 45.5 5 58.6 3.7 2.4-.2 3.8-.4 4.3-.4.3 0 .5.2.5.5s-.2.5-.5.5c-.5 0-2 .2-4.2.4-23.1 2.3-54.4 4.3-59.6-4.2-.8-1.4-.7-2.7.4-3.8 4.8-4.7 27-4.3 33.7-4 13.4.5 30 2.5 34.8 5.5 9.9 6.2 18.7 44.1 19 45.7.1.3-.1.5-.4.6v.2z"/><path class="st0" d="M210.8 459.3c-.2 0-.4-.1-.5-.3-.1-.3 0-.6.3-.7 2.1-.8 58.8-13.7 61.2-14.2.3-.1.5.1.6.4.1.3-.1.5-.4.6-20.4 4.6-59.4 13.6-61 14.2-.1-.1-.2 0-.2 0zM389.4 409.5c-.2 0-.5-.2-.5-.4l-.5-3c0-.3.1-.5.4-.6.3 0 .5.1.6.4l.5 3c.1.2-.1.5-.5.6.1 0 0 0 0 0zM441.8 705.7c-.2 0-.5-.2-.5-.4-.4-2.1-.7-4.1-1.1-5.9-.1-.3.1-.5.4-.6.3-.1.5.1.6.4.4 1.8.8 3.8 1.1 5.9.1.3-.1.6-.5.6.1 0 .1 0 0 0zm-2.4-11.7c-.2 0-.4-.2-.5-.4-.3-1.3-.8-3.3-1.3-5.9-.1-.3.1-.5.4-.6.3-.1.5.1.6.4.5 2.7 1 4.6 1.3 5.9.1.3-.1.6-.4.6-.1-.1-.1 0-.1 0zm-2.5-11.9c-.2 0-.5-.2-.5-.4-.4-1.8-.7-3.8-1.1-5.9-.1-.3.1-.5.4-.6.3-.1.5.1.6.4.4 2.1.8 4.1 1.1 5.9 0 .3-.2.6-.5.6zm-2.3-11.8c-.2 0-.5-.2-.5-.4-.4-1.9-.7-3.9-1.1-5.9-.1-.3.1-.5.4-.6.3-.1.5.1.6.4.4 2 .7 4 1.1 5.9.1.3-.1.5-.5.6.1 0 0 0 0 0zm-2.2-11.9c-.2 0-.5-.2-.5-.4-.4-2-.7-4-1.1-5.9 0-.3.1-.5.4-.6.3 0 .5.1.6.4.4 2 .7 4 1.1 5.9.1.3-.1.6-.5.6.1 0 0 0 0 0zm-2.1-11.9c-.2 0-.5-.2-.5-.4-.4-2-.7-4-1-5.9 0-.3.1-.5.4-.6.3 0 .5.1.6.4.3 1.9.7 3.9 1 5.9 0 .3-.1.6-.5.6.1 0 0 0 0 0zm-2.1-11.8c-.2 0-.5-.2-.5-.4-.4-2.1-.7-4.1-1-6 0-.3.1-.5.4-.6.3 0 .5.1.6.4.3 1.8.6 3.8 1 5.9.1.3-.1.6-.5.7.1 0 .1 0 0 0zm-1.9-12c-.2 0-.5-.2-.5-.4-.3-1.8-.4-3.2-.5-4.2-.1-.6-.1-1.2-.2-1.9 0-.3.2-.5.5-.5s.5.2.5.5c.1.6.1 1.3.2 1.9.1.9.3 2.3.5 4.1.1.2-.1.5-.5.5.1 0 .1 0 0 0zm-1-12c-.3 0-.5-.2-.5-.5-.1-2.1-.2-4-.4-6 0-.3.2-.5.5-.5s.5.2.5.5c.2 2 .3 3.9.4 6 0 .3-.2.5-.5.5zm-1-12c-.3 0-.5-.2-.5-.4-.3-2.1-.6-4.1-1-5.9-.1-.3.1-.5.4-.6.3-.1.5.1.6.4.4 1.9.7 3.8 1 6 0 .2-.2.5-.5.5zm-2.6-11.7c-.2 0-.4-.1-.5-.3-.7-1.9-1.4-3.8-2.3-5.4l.4-.3.5-.2c.9 1.7 1.7 3.6 2.4 5.6.1.3-.1.6-.3.6h-.2zm-4.7-11.1c-.2 0-.4-.1-.5-.3-.6-1.8-1.2-3.7-1.7-5.8-.1-.3.1-.5.4-.6.3-.1.5.1.6.4.5 2.1 1.1 4 1.6 5.7.1.3-.1.6-.3.6h-.1zm-2.9-11.7c-.2 0-.5-.2-.5-.4-.3-1.8-.7-3.8-1-6 0-.3.1-.5.4-.6.3 0 .5.1.6.4.3 2.2.7 4.1 1 5.9.1.4-.1.7-.5.7.1 0 0 0 0 0zm-1.9-11.9c-.3 0-.5-.2-.5-.4-.2-1.3-.4-2.7-.5-4.1l-.3-1.9c0-.3.2-.5.4-.6.3 0 .5.2.6.4l.3 1.9c.2 1.4.4 2.7.5 4.1.1.3-.1.6-.5.6.1 0 .1 0 0 0zm-1.6-11.9c-.2 0-.5-.2-.5-.4-.3-2.2-.6-4.2-.9-5.9 0-.3.1-.5.4-.6.3 0 .5.1.6.4.3 1.8.6 3.7.9 6 .1.2-.1.5-.5.5.1 0 0 0 0 0zm-2-11.9c-.2 0-.5-.2-.5-.4-.3-1.7-.6-3.7-1-6 0-.3.1-.5.4-.6.3 0 .5.1.6.4.4 2.3.7 4.3 1 5.9 0 .4-.1.7-.5.7.1 0 0 0 0 0zm-2-11.9c-.2 0-.5-.2-.5-.4-.3-1.9-.6-3.9-1-6 0-.3.1-.5.4-.6.3 0 .5.1.6.4.3 2.1.7 4.1 1 6 0 .3-.1.6-.5.6zm-2-11.9c-.2 0-.5-.2-.5-.4-.3-1.9-.6-3.9-1-6 0-.3.1-.5.4-.6.3 0 .5.1.6.4.3 2 .7 4 1 6 .1.3-.1.6-.5.6.1 0 .1 0 0 0zm-1.9-11.9c-.2 0-.5-.2-.5-.4l-1-6c0-.3.1-.5.4-.6.3 0 .5.1.6.4l1 6c.1.3-.1.6-.5.6.1 0 0 0 0 0zm-1.9-11.9c-.2 0-.5-.2-.5-.4l-1-6c0-.3.1-.5.4-.6.3 0 .5.1.6.4l1 6c0 .3-.2.6-.5.6zm-1.9-11.9c-.2 0-.5-.2-.5-.4l-1-5.9c0-.3.1-.5.4-.6.3 0 .5.1.6.4l1 5.9c0 .3-.2.6-.5.6zm-1.9-11.9c-.2 0-.5-.2-.5-.4l-.9-6c0-.3.1-.5.4-.6.3 0 .5.1.6.4l.9 6c0 .3-.2.5-.5.6zm-1.9-11.9c-.2 0-.5-.2-.5-.4l-.9-6c0-.3.1-.5.4-.6.3 0 .5.1.6.4l.9 6c0 .3-.2.5-.5.6zm-1.9-11.9c-.2 0-.5-.2-.5-.4l-.9-6c0-.3.1-.5.4-.6.3 0 .5.1.6.4l.9 6c0 .3-.2.5-.5.6zm-1.9-11.9c-.2 0-.5-.2-.5-.4l-.9-6c0-.3.1-.5.4-.6.3 0 .5.1.6.4l.9 6c0 .3-.1.5-.5.6zM443.1 714.3c-.3 0-.5-.2-.5-.5 0 0-.1-1.2-.4-3 0-.3.2-.5.4-.6.3 0 .5.2.6.4.3 1.9.4 3 .4 3 0 .4-.2.6-.5.7zM287.4 717.8c-.3 0-.5-.2-.5-.5-.1-1.7-.2-3.8-.3-6.1 0-.3.2-.5.5-.5s.5.2.5.5c.1 2.4.2 4.4.3 6.1 0 .3-.2.5-.5.5zm-.6-12.3c-.3 0-.5-.2-.5-.5-.1-1.9-.2-4-.3-6.1 0-.3.2-.5.5-.5s.5.2.5.5c.1 2.1.2 4.2.3 6.1 0 .3-.2.5-.5.5zm-.6-12.2c-.3 0-.5-.2-.5-.5-.1-2-.2-4.1-.3-6.1 0-.3.2-.5.5-.5s.5.2.5.5c.1 2.1.2 4.1.3 6.1 0 .2-.2.5-.5.5zm-.6-12.3c-.3 0-.5-.2-.5-.5-.1-2-.2-4.1-.3-6.1 0-.3.2-.5.5-.5s.5.2.5.5c.1 2 .2 4.1.3 6.1 0 .3-.2.5-.5.5zm-.7-12.2c-.3 0-.5-.2-.5-.5-.1-2.1-.3-4.1-.4-6.1 0-.3.2-.5.5-.5s.5.2.5.5c.1 2 .3 4 .4 6.1 0 .2-.2.5-.5.5zm-.8-12.3c-.3 0-.5-.2-.5-.5-.2-2.2-.3-4.2-.5-6.1 0-.3.2-.5.5-.5s.5.2.5.5c.2 1.9.3 4 .5 6.1 0 .3-.2.5-.5.5zm-.9-12.2c-.3 0-.5-.2-.5-.5l-.5-6.1c0-.3.2-.5.5-.6.3 0 .5.2.5.5l.5 6.1c0 .3-.2.6-.5.6zm-1-12.2c-.3 0-.5-.2-.5-.5l-.5-6.1c0-.3.2-.5.5-.5s.5.2.5.5l.5 6.1c0 .2-.2.5-.5.5zm-1-12.2c-.3 0-.5-.2-.5-.5l-.5-6.1c0-.3.2-.5.5-.5s.5.2.5.5l.5 6.1c0 .2-.2.4-.5.5zm-1-12.3c-.3 0-.5-.2-.5-.5l-.5-6.1c0-.3.2-.5.5-.5s.5.2.5.5l.5 6.1c.1.3-.1.5-.5.5.1 0 .1 0 0 0zm-.9-12.2c-.3 0-.5-.2-.5-.5l-.5-6.1c0-.3.2-.5.5-.5s.5.2.5.5l.5 6.1c0 .2-.2.5-.5.5zm-1-12.2c-.3 0-.5-.2-.5-.5l-.5-6.1c0-.3.2-.5.5-.5s.5.2.5.5l.5 6.1c0 .2-.2.5-.5.5zm-1-12.2c-.3 0-.5-.2-.5-.5l-.5-6.1c0-.3.2-.5.5-.5s.5.2.5.5l.5 6.1c.1.2-.1.4-.5.5.1 0 .1 0 0 0zm-.9-12.3c-.3 0-.5-.2-.5-.5-.1-2-.2-4.1-.4-6.1 0-.3.2-.5.5-.5s.5.2.5.5c.1 2 .2 4.1.4 6.1.1.3-.1.5-.5.5.1 0 .1 0 0 0zm-.6-12.2c-.3 0-.5-.2-.5-.5-.1-1.8-.2-3.7-.3-5.5v-.6c0-.3.2-.5.5-.5s.5.2.5.5v.6c.1 1.8.2 3.7.3 5.5 0 .3-.2.5-.5.5zm-.6-12.2c-.3 0-.5-.2-.5-.5-.1-2.1-.2-4.1-.3-6.1 0-.3.2-.5.5-.5s.5.2.5.5c.1 2 .2 4.1.3 6.1 0 .2-.2.5-.5.5zm-.7-12.3c-.3 0-.5-.2-.5-.5-.1-2.1-.3-4.2-.5-6.1 0-.3.2-.5.5-.6.3 0 .5.2.6.5.2 1.9.3 4 .5 6.1-.1.4-.3.6-.6.6zm-1.1-12.2c-.3 0-.5-.2-.5-.5-.2-2.1-.5-4.2-.7-6.1 0-.3.2-.5.4-.6.3 0 .5.2.6.4.3 1.9.5 4 .7 6.1.1.4-.1.7-.5.7.1 0 .1 0 0 0zm-1.6-12.1c-.2 0-.5-.2-.5-.4-.3-1.9-.6-4-.9-6.1 0-.3.2-.5.4-.6.3 0 .5.2.6.4.3 2.1.5 4.1.9 6 .1.4-.1.6-.5.7.1 0 0 0 0 0zm-1.5-12.2c-.3 0-.5-.2-.5-.5-.2-2-.3-4-.5-6.1 0-.3.2-.5.5-.5s.5.2.5.5c.1 2.1.3 4.1.5 6.1.1.2-.2.5-.5.5zm-.7-12.2c-.3 0-.5-.2-.5-.5-.1-2-.1-4.1-.2-6.1 0-.3.2-.5.5-.5s.5.2.5.5c0 2 .1 4.1.1 6.1.1.2-.1.5-.4.5zm-.2-12.3c-.3 0-.5-.2-.5-.5 0-3.8.1-6.1.1-6.1 0-.3.3-.5.5-.5.3 0 .5.3.5.5 0 0-.1 2.4-.1 6.1 0 .3-.2.5-.5.5zM285.9 737.8c-2.6 0-5.7-.1-9.2-.2-2.9-.1-6.2-.2-9.6-.2-11.4-.2-35.9-1.2-36.1-1.2-.3 0-.5-.2-.5-.5s.2-.5.5-.5c.2 0 24.7 1 36.1 1.2 3.4.1 6.7.1 9.6.2 7.2.2 12.9.4 15.2-.2 3.2-.8 9.7-4.1 9.8-4.1.3-.1.6 0 .7.2.1.3 0 .6-.2.7-.3.1-6.7 3.3-10 4.2-1.3.3-3.4.4-6.3.4zM392.8 734.6c-.3 0-.5-.2-.5-.5s.2-.5.5-.5c.2 0 17.4-.4 26.1-1.4 8.9-1 20.7-2.9 24.1-3.6 3.5-.7 9.9-1.7 10-1.7.3 0 .5.1.6.4 0 .3-.1.5-.4.6-.1 0-6.5 1-10 1.7s-15.3 2.6-24.2 3.6c-8.7 1.1-26 1.4-26.2 1.4z"/><path class="st6" d="M212 241.3c1.1-1.7.6-3.9-1-5l-9.7-6.5c-1.7-1.1-3.9-.6-5 1-1.1 1.7-.6 3.9 1 5l9.7 6.5c1.6 1.1 3.9.7 5-1zM224.5 181.2l-10.8 4.4c-1.8.8-2.7 2.9-2 4.7.8 1.8 2.9 2.7 4.7 2l10.8-4.4c1.8-.8 2.7-2.9 2-4.7-.7-1.9-2.9-2.8-4.7-2zM244.1 159.3c.3 2 2.2 3.3 4.1 3 2-.3 3.3-2.2 3-4.1l-1.8-11.6c-.3-2-2.2-3.3-4.1-3-2 .3-3.3 2.2-3 4.1l1.8 11.6zM177.2 352.2c-.5 1.9.6 3.9 2.5 4.4 1.9.5 3.9-.6 4.4-2.5l3.1-11.3c.5-1.9-.6-3.9-2.5-4.4-1.9-.5-3.9.6-4.4 2.5l-3.1 11.3zM199.9 296.1l-9.6-6.6c-1.6-1.1-3.9-.7-5 .9s-.7 3.9.9 5l9.6 6.6c1.6 1.1 3.9.7 5-.9 1.2-1.6.8-3.9-.9-5z"/><path class="st10" d="M423.4 263.3c1.1.6 2.3.5 3.3 0h-.4l-3.8-.4.9.4z"/><path class="st6" d="M480 303.6c.3-2-1-3.8-3-4.2l-11.5-1.9c-2-.3-3.8 1-4.2 3-.3 2 1 3.8 3 4.2l11.5 1.9c2 .2 3.9-1.1 4.2-3zM411.9 361.3c-2-.3-3.8 1-4.1 3l-.7 4.4c2.6-1.1 5.2-2.4 7.9-3.7 0-1.8-1.3-3.4-3.1-3.7zM408.6 318.4l10.3 5.5c1.7.9 3.9.3 4.9-1.5.9-1.7.3-3.9-1.5-4.9L412 312c-1.7-.9-3.9-.3-4.9 1.5-.9 1.7-.3 3.9 1.5 4.9zM368.6 330c-1.2-1.6-3.5-1.9-5.1-.6l-9.2 7.2c-1.6 1.2-1.9 3.5-.6 5.1 1.2 1.6 3.5 1.9 5.1.6l9.2-7.2c1.5-1.2 1.8-3.5.6-5.1zM381.3 224.3c-1.7-1.1-3.9-.6-5 1.1l-.9 1.3c1.6 2.1 3.2 4.1 4.7 6l2.2-3.4c1.1-1.7.7-4-1-5zM428.2 261.8c.9-1.8.2-4-1.6-4.9l-10.4-5.4c-1.8-.9-4-.2-4.9 1.6-.9 1.8-.2 4 1.6 4.9l9.5 4.9 3.8.4h.4c.7-.3 1.3-.8 1.6-1.5zM422.3 211.1c1 1.7 3.2 2.4 4.9 1.4l10.3-5.6c1.1-.6 1.8-1.7 1.9-2.9-1.4-1.3-2.7-2.5-4.1-3.8-.4.1-.8.2-1.2.4l-10.3 5.6c-1.8 1-2.4 3.2-1.5 4.9zM392.9 195.3l-10.9-4.1c-1.9-.7-4 .3-4.6 2.1-.7 1.9.3 4 2.1 4.6l10.9 4.1c1.9.7 4-.3 4.6-2.1.7-1.8-.3-3.9-2.1-4.6zM478.1 250.8l-1.9 1.4c-1.6 1.2-2 3.4-.8 5s3.4 2 5 .8l1.1-.8c-1-2.1-2.1-4.3-3.4-6.4zM373.9 155.8c-1.9.6-3 2.6-2.5 4.5.6 1.9 2.6 3 4.5 2.5l9.1-2.6c-2.6-1.9-5.2-3.7-7.6-5.3l-3.5.9z"/><path class="st0" d="M388.6 243.4c-.1 0-.3-.1-.4-.2-.2-.2-16.8-20.4-22.3-28.7s-8.1-12.7-8.2-12.7c-.1-.2-.1-.6.2-.7.2-.1.6-.1.7.2 0 0 2.7 4.4 8.2 12.7 5.4 8.3 22 28.4 22.2 28.6.2.2.1.5-.1.7 0 0-.1.1-.3.1zM448.3 295.5c-13.7 0-40.8-26.5-42-27.7-.2-.2-.2-.5 0-.7.2-.2.5-.2.7 0 .1.1 7.9 7.8 17.2 14.9 12.1 9.4 21.2 13.6 26.1 12.2 1.6-.5 1.7-1.2 1.7-1.4.6-5.3-25.8-20.8-36-26.3-.2-.1-.3-.4-.2-.7.1-.2.4-.4.6-.3 11.8 4.6 40 14.5 51.5 14.5 2.3 0 4-.4 4.6-1.3.2-.2.2-.5.1-.7-2.3-5.6-49.5-13.9-67.5-16.7-.3 0-.5-.3-.4-.6 0-.3.3-.5.6-.4.2 0 16.4 2.5 32.9 5.9 22.5 4.6 34.1 8.3 35.4 11.5.2.6.2 1.2-.2 1.7-2.3 3.2-12.4 2-30.9-3.6-7.6-2.3-15.1-4.9-20.1-6.8 10.7 6.1 31.2 18.6 30.6 24.1-.1 1.1-1 1.9-2.5 2.3-.6 0-1.4.1-2.2.1z"/><path class="st4" d="M153.3 366.5c4.3-1.3 7.7-5.7 12.9-5.2s15.8 2.3 15.4-1.3c-.4-3.7-7.9-6.3-7.9-6.3s14.8 5.8 14.9 3.9c.1-1.9-2.3-3.5-2.3-3.5s6.2-.2 5-2.3c-1.2-2.1-15.2-7.2-15.2-7.2s16.5-6 14.1-7.7c-2.4-1.6-11.5.5-17.9 1.9-6.4 1.3-18.3-.1-24.6 10.4-6.2 10.3 1.8 18.4 5.6 17.3z"/><path class="st0" d="M173 261.6c-.2 0-.4-.1-.4-.3-10.3-18.7-38.2-16.5-38.4-16.5-.3 0-.5-.2-.6-.5 0-.3.2-.5.5-.6.3 0 28.8-2.3 39.4 17 .1.2 0 .6-.2.7-.1.2-.2.2-.3.2z"/><path class="st0" d="M166.5 272c-.2 0-.4-.1-.5-.3 0 0-1.2-2.8-7.1-7.1-3.8-2.7-9.4-3.2-14.9-3.7-3.2-.3-6.2-.5-8.7-1.2-3.2-.9-3.2-2.5-3.1-3.2.3-1.5 2.3-2.9 5.3-3.8 2.4-.7 6.6-1.3 12.9-.6 15.4 1.9 20.7 13.2 20.8 13.4.1.3 0 .6-.3.7-.3.1-.6 0-.7-.3 0 0-1.3-2.8-4.4-5.7-2.8-2.7-7.9-6.1-15.6-7.1-10.6-1.3-16.7 1.6-17.1 3.6-.2.8.7 1.5 2.3 2 2.5.7 5.4.9 8.5 1.2 5.6.5 11.4 1 15.4 3.9 6.2 4.5 7.4 7.4 7.5 7.6.1.3 0 .6-.3.7.1-.1.1-.1 0-.1z"/><path class="st11" d="M349.9 558.5s4.8 12.9 5.6 13.4c.8.5 5.6-3 5.6-3s6.8 4.9 8.6 3.1c1.8-1.9.3-5.8 1.8-6.5 1.5-.8 5.2 1.5 5.7 0s-6.4-16.5-8.3-20.1c-1.8-3.6-6.9-1.5-6.9 0s-3.1.8-4.2 2.1c-1 1.2-12.5-.5-7.9 11zM399.9 599s-8.6-.3-10.9 2.6c-2.2 2.8-5.6 4.6-6.7 7-1.1 2.3-.1 7 2.4 10.6 2.5 3.6 7.7 10.1 11.1 7.7 3.4-2.3 4.1-5.4 4.1-5.4s5.6.5 9.4-1.3 5.6-1.5 5.6-3.4-6.9-18.7-15-17.8zM247.3 599c-2.1-7.3-19.2-6.2-19.2-6.2l5.1-3.1s-1-6.2-15.8-5.8c-6.2.1-10.4.2-13.3.1 2.6 14.5 5.2 28.9 7.8 42.7 12.3-1 36-2.9 35.4-5-.6-2.7 2.1-15.5 0-22.7z"/></svg>